#N canvas 146 270 753 363 24;
#X obj 514 320 s >ff;
#X obj 20 319 s >ff;
#X obj 517 70 route float;
#X obj 515 173 symbol \$1;
#X obj 516 122 t b 0;
#X obj 516 225 pack s 0;
#X obj 21 175 symbol \$1;
#X msg 21 227 send recall \$1;
#X obj 203 175 symbol \$1;
#X obj 204 126 t b 0;
#X obj 204 227 pack s 0;
#X msg 338 125 0;
#X obj 517 19 r \$1-clone;
#X obj 20 19 r \$1-recall!;
#X obj 203 18 r \$1-recall;
#X obj 21 71 t b b;
#X msg 72 274 send recall \$2-\$1 \$1;
#X msg 515 274 send clone \$2-\$1 \$1;
#X obj 339 174 v \$1-mode;
#X obj 204 72 t 0 b b;
#X obj 42 127 s \$1-update!;
#X connect 2 0 4 0;
#X connect 3 0 5 0;
#X connect 4 0 3 0;
#X connect 4 1 5 1;
#X connect 5 0 17 0;
#X connect 6 0 7 0;
#X connect 7 0 1 0;
#X connect 8 0 10 0;
#X connect 9 0 8 0;
#X connect 9 1 10 1;
#X connect 10 0 16 0;
#X connect 11 0 18 0;
#X connect 12 0 2 0;
#X connect 13 0 15 0;
#X connect 14 0 19 0;
#X connect 15 0 6 0;
#X connect 15 0 20 0;
#X connect 15 1 11 0;
#X connect 16 0 1 0;
#X connect 17 0 0 0;
#X connect 19 0 9 0;
#X connect 19 1 20 0;
#X connect 19 2 11 0;
