#N canvas 86 177 569 364 24;
#X obj 344 317 s >ff;
#X obj 20 317 s >ff;
#X obj 347 19 inlet;
#X obj 20 19 inlet;
#X obj 21 68 route bang float;
#X obj 347 68 route float;
#X obj 345 171 symbol \$1;
#X msg 345 272 send clone \$1\$2 \$1;
#X obj 346 120 t b 0;
#X obj 346 223 pack s 0;
#X obj 21 173 symbol \$1;
#X msg 21 225 send recall \$1;
#X msg 72 272 send recall \$1\$2 \$1;
#X obj 203 173 symbol \$1;
#X obj 204 120 t b 0;
#X obj 204 225 pack s 0;
#X connect 2 0 5 0;
#X connect 3 0 4 0;
#X connect 4 0 10 0;
#X connect 4 1 14 0;
#X connect 5 0 8 0;
#X connect 6 0 9 0;
#X connect 7 0 0 0;
#X connect 8 0 6 0;
#X connect 8 1 9 1;
#X connect 9 0 7 0;
#X connect 10 0 11 0;
#X connect 11 0 1 0;
#X connect 12 0 1 0;
#X connect 13 0 15 0;
#X connect 14 0 13 0;
#X connect 14 1 15 1;
#X connect 15 0 12 0;
