#N canvas 106 174 471 394 24;
#X obj 28 281 netsend;
#X msg 45 176 connect localhost 3000;
#X msg 28 227 disconnect;
#X obj 188 228 r >ff;
#X obj 28 18 inlet;
#X obj 28 70 sel;
#X obj 29 338 outlet;
#X obj 180 282 netreceive 3001;
#X obj 340 339 outlet;
#X obj 180 338 s ff>;
#X obj 236 18 r ff>;
#X obj 235 123 print ff>;
#X obj 339 173 del 500;
#X obj 123 123 t b;
#X obj 236 70 spigot;
#X obj 330 17 r monitor;
#X obj 339 227 s ff-init;
#X connect 0 0 6 0;
#X connect 1 0 0 0;
#X connect 2 0 0 0;
#X connect 3 0 0 0;
#X connect 4 0 5 0;
#X connect 5 0 2 0;
#X connect 5 1 13 0;
#X connect 7 0 9 0;
#X connect 7 1 8 0;
#X connect 10 0 14 0;
#X connect 12 0 16 0;
#X connect 13 0 12 0;
#X connect 13 0 1 0;
#X connect 14 0 11 0;
#X connect 15 0 14 1;
