#N canvas 159 230 662 481 24;
#X obj 70 437 s >ff;
#X obj 106 289 timer;
#X obj 19 233 t b a;
#X obj 482 20 r ff>;
#X obj 344 388 qlist;
#X msg 551 283 clear;
#N canvas 250 147 210 441 add 0;
#X obj 21 126 until;
#X obj 22 181 list append;
#X obj 20 73 t b l;
#X obj 150 73 t b;
#X obj 22 235 list split 2;
#X obj 21 20 inlet;
#X obj 22 400 outlet;
#X obj 21 297 pack 0 0 s;
#X msg 21 350 add \$1 \$3 \$2;
#X obj 126 18 inlet;
#X connect 0 0 1 0;
#X connect 1 0 4 0;
#X connect 2 0 0 0;
#X connect 2 1 1 1;
#X connect 3 0 0 1;
#X connect 4 0 7 0;
#X connect 4 1 1 1;
#X connect 4 2 3 0;
#X connect 5 0 2 0;
#X connect 7 0 8 0;
#X connect 8 0 6 0;
#X connect 9 0 7 2;
#X restore 482 232 pd add;
#X msg 551 331 print;
#X obj 481 127 t l b b;
#X obj 106 340 pack 0 0 s;
#X obj 106 233 t b b 0 b;
#X msg 105 387 send event \$3 \$1 \$2;
#X obj 18 132 symbol \$1;
#X obj 200 289 symbol \$1;
#X obj 482 75 route \$1;
#X obj 103 77 spigot;
#X obj 17 77 t b b;
#X msg 202 131 1;
#X msg 18 182 send track \$1;
#X obj 194 22 r \$1>>;
#X obj 293 21 r \$1-mode;
#X obj 202 182 s \$1-mode;
#X obj 518 182 symbol >>\$1;
#X obj 18 23 r \$1-capture!;
#X obj 343 76 r \$1-play!;
#X connect 1 0 9 0;
#X connect 2 0 1 0;
#X connect 2 1 0 0;
#X connect 3 0 14 0;
#X connect 5 0 4 0;
#X connect 6 0 4 0;
#X connect 7 0 4 0;
#X connect 8 0 6 0;
#X connect 8 1 22 0;
#X connect 8 2 5 0;
#X connect 9 0 11 0;
#X connect 10 0 1 0;
#X connect 10 1 1 1;
#X connect 10 2 9 1;
#X connect 10 3 13 0;
#X connect 11 0 0 0;
#X connect 12 0 18 0;
#X connect 13 0 9 2;
#X connect 14 0 8 0;
#X connect 15 0 10 0;
#X connect 16 0 12 0;
#X connect 16 1 17 0;
#X connect 17 0 21 0;
#X connect 18 0 2 0;
#X connect 19 0 15 0;
#X connect 20 0 15 1;
#X connect 22 0 6 1;
#X connect 23 0 16 0;
#X connect 24 0 4 0;
