#N canvas 67 172 757 526 24;
#X obj 68 484 s >ff;
#X obj 134 336 timer;
#X obj 17 280 t b a;
#X obj 580 14 r ff>;
#X obj 442 333 qlist;
#X msg 649 279 clear;
#N canvas 250 147 210 441 add 0;
#X obj 21 126 until;
#X obj 22 181 list append;
#X obj 20 73 t b l;
#X obj 150 73 t b;
#X obj 22 235 list split 2;
#X obj 21 20 inlet;
#X obj 22 400 outlet;
#X obj 21 297 pack 0 0 s;
#X msg 21 350 add \$1 \$3 \$2;
#X obj 126 18 inlet;
#X connect 0 0 1 0;
#X connect 1 0 4 0;
#X connect 2 0 0 0;
#X connect 2 1 1 1;
#X connect 3 0 0 1;
#X connect 4 0 7 0;
#X connect 4 1 1 1;
#X connect 4 2 3 0;
#X connect 5 0 2 0;
#X connect 7 0 8 0;
#X connect 8 0 6 0;
#X connect 9 0 7 2;
#X restore 580 228 pd add;
#X msg 520 332 print;
#X obj 579 123 t l b b;
#X obj 134 387 pack 0 0 s;
#X obj 134 280 t b b 0 b;
#X msg 133 434 send event \$3 \$1 \$2;
#X obj 16 126 symbol \$1;
#X obj 228 336 symbol \$1;
#X obj 580 70 route \$1;
#X obj 135 178 spigot;
#X msg 17 231 send track \$1;
#X obj 192 16 r \$1>>;
#X obj 616 177 symbol >>\$1;
#X obj 16 17 r \$1-capture!;
#X obj 441 15 r \$1-play!;
#X obj 184 124 v \$1-mode;
#X obj 134 70 t 0 b;
#X obj 297 233 spigot;
#X obj 298 70 t b b;
#X obj 359 124 v \$1-mode;
#N canvas 123 174 248 366 update 0;
#X obj 22 20 inlet;
#X msg 115 124 1;
#X obj 115 173 v \$1-mode;
#X obj 84 220 s \$1-update!;
#X obj 21 74 t b b b b;
#X obj 22 322 outlet;
#X obj 51 272 s ff-play!;
#X connect 0 0 4 0;
#X connect 1 0 2 0;
#X connect 4 0 5 0;
#X connect 4 1 6 0;
#X connect 4 2 3 0;
#X connect 4 3 1 0;
#X restore 16 71 pd update;
#X obj 360 177 ==;
#X obj 298 16 r ff-play!;
#X connect 1 0 9 0;
#X connect 2 0 1 0;
#X connect 2 1 0 0;
#X connect 3 0 14 0;
#X connect 5 0 4 0;
#X connect 6 0 4 0;
#X connect 7 0 4 0;
#X connect 8 0 6 0;
#X connect 8 1 18 0;
#X connect 8 2 5 0;
#X connect 9 0 11 0;
#X connect 10 0 1 0;
#X connect 10 1 1 1;
#X connect 10 2 9 1;
#X connect 10 3 13 0;
#X connect 11 0 0 0;
#X connect 12 0 16 0;
#X connect 13 0 9 2;
#X connect 14 0 8 0;
#X connect 15 0 10 0;
#X connect 16 0 2 0;
#X connect 17 0 22 0;
#X connect 18 0 6 1;
#X connect 19 0 26 0;
#X connect 20 0 4 0;
#X connect 21 0 15 1;
#X connect 22 0 15 0;
#X connect 22 1 21 0;
#X connect 23 0 4 0;
#X connect 24 0 23 0;
#X connect 24 1 25 0;
#X connect 25 0 27 0;
#X connect 26 0 12 0;
#X connect 27 0 23 1;
#X connect 28 0 24 0;
