#N canvas 147 260 405 310 24;
#X obj 50 30 cnv 28 130 145 empty \$1-bg \$1 100 65 1 20 -166441 -262144
0;
#X obj 54 33 bng 28 250 50 0 \$1-capture! empty capture 35 12 1 20
-1 -257985 -1;
#X obj 54 93 bng 28 250 50 0 \$1-play! empty play 35 12 1 20 -1 -257985
-1;
#X floatatom 114 124 5 0 0 3 recall #1-recall-id #1-recall;
#X floatatom 54 124 5 0 0 3 clone #1-clone-id #1-clone;
#X obj 54 63 bng 28 250 50 0 \$1-recall! empty recall 35 12 1 20 -1
-257985 -1;
#X obj 234 256 s \$1-bg;
#X obj 236 74 v \$1-mode;
#X obj 236 123 sel;
#X obj 236 24 r \$1-update!;
#X msg 235 172 color 1;
#X msg 269 213 color 12;
#X connect 7 0 8 0;
#X connect 8 0 10 0;
#X connect 8 1 11 0;
#X connect 9 0 7 0;
#X connect 10 0 6 0;
#X connect 11 0 6 0;
#X coords 0 -1 1 1 130 145 2 50 30;
