#N canvas 69 124 508 469 24;
#X obj 68 396 s >ff;
#X obj 104 250 timer;
#X obj 17 194 t b a;
#X obj 360 -18 r ff>;
#X obj 264 393 qlist;
#X msg 428 235 clear;
#N canvas 250 147 210 441 add 0;
#X obj 21 126 until;
#X obj 22 181 list append;
#X obj 20 73 t b l;
#X obj 150 73 t b;
#X obj 22 235 list split 2;
#X obj 21 20 inlet;
#X obj 22 400 outlet;
#X obj 21 297 pack 0 0 s;
#X msg 21 350 add \$1 \$3 \$2;
#X obj 126 18 inlet;
#X connect 0 0 1 0;
#X connect 1 0 4 0;
#X connect 2 0 0 0;
#X connect 2 1 1 1;
#X connect 3 0 0 1;
#X connect 4 0 7 0;
#X connect 4 1 1 1;
#X connect 4 2 3 0;
#X connect 5 0 2 0;
#X connect 7 0 8 0;
#X connect 8 0 6 0;
#X connect 9 0 7 2;
#X restore 359 189 pd add;
#X msg 362 348 print;
#X obj 358 82 t l b b;
#X obj 264 -18 inlet;
#X obj 102 -17 inlet;
#X obj 16 -16 inlet;
#X msg 16 146 send track \$1 \, send clear \$1;
#X obj 104 301 pack 0 0 s;
#X obj 104 194 t b b 0 b;
#X msg 103 348 send event \$3 \$1 \$2;
#X obj 15 38 t b;
#X obj 16 93 symbol \$1;
#X obj 395 137 symbol \$1;
#X obj 198 250 symbol \$1;
#X obj 359 32 route \$1;
#X connect 1 0 13 0;
#X connect 2 0 1 0;
#X connect 2 1 0 0;
#X connect 3 0 20 0;
#X connect 5 0 4 0;
#X connect 6 0 4 0;
#X connect 7 0 4 0;
#X connect 8 0 6 0;
#X connect 8 1 18 0;
#X connect 8 2 5 0;
#X connect 9 0 4 0;
#X connect 10 0 14 0;
#X connect 11 0 16 0;
#X connect 12 0 2 0;
#X connect 13 0 15 0;
#X connect 14 0 1 0;
#X connect 14 1 1 1;
#X connect 14 2 13 1;
#X connect 14 3 19 0;
#X connect 15 0 0 0;
#X connect 16 0 17 0;
#X connect 17 0 12 0;
#X connect 18 0 6 1;
#X connect 19 0 13 2;
#X connect 20 0 8 0;
