#N canvas 144 113 406 574 24;
#X obj 158 314 i;
#X obj 219 313 + 1;
#X obj 158 258 until;
#X obj 157 477 textfile;
#X msg 157 423 add2 \$1;
#X obj 240 258 i;
#X msg 21 424 add \, bang;
#X obj 121 202 t b 0 b;
#X obj 120 19 inlet;
#X obj 120 74 route float symbol;
#X obj 157 370 tabread \$1;
#X obj 158 531 outlet;
#X msg 312 313 set \$1;
#N canvas 144 148 367 406 prepender 0;
#X obj 161 21 inlet;
#X obj 130 358 outlet;
#X obj 50 144 list;
#X obj 23 21 inlet;
#X obj 51 198 route bang;
#X msg 130 144 clear;
#X obj 24 77 t b b b;
#X obj 157 255 list prepend add2;
#X obj 158 307 list trim;
#X connect 0 0 2 1;
#X connect 2 0 4 0;
#X connect 3 0 6 0;
#X connect 4 1 7 0;
#X connect 5 0 1 0;
#X connect 6 0 2 1;
#X connect 6 1 2 0;
#X connect 6 2 5 0;
#X connect 7 0 8 0;
#X connect 8 0 1 0;
#X restore 233 201 pd prepender;
#X obj 121 128 t 0 b;
#X connect 0 0 1 0;
#X connect 0 0 10 0;
#X connect 1 0 0 1;
#X connect 2 0 0 0;
#X connect 3 0 11 0;
#X connect 4 0 3 0;
#X connect 5 0 0 1;
#X connect 6 0 3 0;
#X connect 7 0 6 0;
#X connect 7 1 2 0;
#X connect 7 2 5 0;
#X connect 8 0 9 0;
#X connect 9 0 14 0;
#X connect 9 1 12 0;
#X connect 9 2 13 1;
#X connect 10 0 4 0;
#X connect 12 0 10 0;
#X connect 13 0 3 0;
#X connect 14 0 7 0;
#X connect 14 1 13 0;
