#N canvas 150 498 964 223 24;
#X floatatom 15 124 5 0 0 0 - - -;
#X floatatom 88 124 5 0 0 0 - - -;
#X obj 16 17 tgl 28 0 empty empty empty 17 7 0 10 -262144 -1 -1 0 1
;
#X floatatom 705 167 5 0 0 0 - - -;
#X obj 705 17 vsl 55 140 0 127 0 0 p1>> >>p1 empty -2 -8 0 10 -262144
-1 -1 0 0;
#N canvas 100 202 331 228 tracks 0;
#X obj 35 31 fudi-track p1;
#X obj 35 75 fudi-track p2;
#X obj 34 116 fudi-track q1;
#X obj 33 159 fudi-track q2;
#X restore 124 178 pd tracks;
#X obj 162 15 fudi-panel p1;
#X obj 294 15 fudi-panel p2;
#N canvas 60 172 346 214 init 0;
#X obj 25 24 loadbang;
#X obj 25 123 s monitor;
#X obj 24 71 tgl 28 0 empty empty empty 17 7 0 10 -262144 -1 -1 1 1
;
#X connect 0 0 2 0;
#X connect 2 0 1 0;
#X restore 19 178 pd init;
#N canvas 97 135 321 228 scenes 0;
#X obj 33 32 fudi-scenes p1;
#X obj 33 77 fudi-scenes p2;
#X obj 31 123 fudi-scenes q1;
#X obj 31 168 fudi-scenes q2;
#X restore 248 179 pd scenes;
#N canvas 51 106 279 229 monitors 0;
#X obj 24 29 monitor p1;
#X obj 25 72 monitor p2;
#X obj 23 115 monitor q1;
#X obj 24 158 monitor q2;
#X restore 374 179 pd monitors;
#X obj 426 15 fudi-panel q1;
#X obj 558 15 fudi-panel q2;
#X floatatom 766 166 5 0 0 0 - - -;
#X obj 766 17 vsl 55 140 0 127 0 0 p2>> >>p2 empty -2 -8 0 10 -262144
-1 -1 0 0;
#X floatatom 827 166 5 0 0 0 - - -;
#X obj 827 17 vsl 55 140 0 127 0 0 q1>> >>q1 empty -2 -8 0 10 -262144
-1 -1 0 0;
#X floatatom 888 165 5 0 0 0 - - -;
#X obj 888 17 vsl 55 140 0 127 0 0 q2>> >>q2 empty -2 -8 0 10 -262144
-1 -1 0 0;
#X obj 15 71 fudi-io;
#X connect 2 0 19 0;
#X connect 4 0 3 0;
#X connect 14 0 13 0;
#X connect 16 0 15 0;
#X connect 18 0 17 0;
#X connect 19 0 0 0;
#X connect 19 1 1 0;
