#N canvas 723 341 744 468 24;
#X floatatom 182 20 5 0 0 0 - - -;
#X floatatom 25 120 5 0 0 0 - - -;
#N canvas 0 0 450 300 (subpatch) 0;
#X array a1 100 float 0;
#X coords 0 1 99 -1 200 100 1;
#X restore 22 221 graph;
#N canvas 0 0 450 300 (subpatch) 0;
#X array a2 100 float 0;
#X coords 0 1 99 -1 200 100 1;
#X restore 25 353 graph;
#X obj 458 275 s >ff;
#X obj 255 422 s >ff;
#X floatatom 264 20 5 0 0 0 - - -;
#X obj 184 166 s >ff;
#X floatatom 457 21 5 0 0 0 - - -;
#N canvas 101 135 440 335 netio 0;
#X obj 28 231 netsend;
#X msg 82 125 connect localhost 3000;
#X msg 28 171 disconnect;
#X obj 188 172 r >ff;
#X obj 28 18 inlet;
#X obj 28 70 sel;
#X obj 29 288 outlet;
#X obj 180 232 netreceive 3001;
#X obj 180 288 print ff;
#X obj 340 289 outlet;
#X connect 0 0 6 0;
#X connect 1 0 0 0;
#X connect 2 0 0 0;
#X connect 3 0 0 0;
#X connect 4 0 5 0;
#X connect 5 0 2 0;
#X connect 5 1 1 0;
#X connect 7 0 8 0;
#X connect 7 1 9 0;
#X restore 25 71 pd netio;
#X floatatom 109 118 5 0 0 0 - - -;
#X obj 26 18 tgl 28 0 empty empty empty 17 7 0 10 -262144 -1 -1 1 1
;
#X obj 458 116 s >ff;
#X msg 253 326 symbol \$1 \, send array \$1 \, 100;
#X msg 293 234 symbol a1;
#X msg 296 277 symbol a2;
#X obj 254 373 list-table a1;
#X msg 458 67 send event t1 100 \$1;
#X msg 550 22 send track t1;
#X msg 458 181 send tap-on F1;
#X msg 484 224 send tap-on F2;
#X msg 538 276 send tap-off F1;
#X msg 183 68 send float f1 \$1;
#X msg 200 117 send float f2 \$1;
#X msg 538 118 send clear t1;
#X msg 460 374 send get F1;
#X obj 460 422 s >ff;
#X connect 0 0 22 0;
#X connect 6 0 23 0;
#X connect 8 0 17 0;
#X connect 9 0 1 0;
#X connect 9 1 10 0;
#X connect 11 0 9 0;
#X connect 13 0 16 0;
#X connect 14 0 13 0;
#X connect 15 0 13 0;
#X connect 16 0 5 0;
#X connect 17 0 12 0;
#X connect 18 0 12 0;
#X connect 19 0 4 0;
#X connect 20 0 4 0;
#X connect 21 0 4 0;
#X connect 22 0 7 0;
#X connect 23 0 7 0;
#X connect 24 0 12 0;
#X connect 25 0 26 0;
