#N canvas 1013 622 344 181 24;
#X floatatom 25 126 5 0 0 0 - - -;
#N canvas 111 191 440 335 netio 0;
#X obj 28 231 netsend;
#X msg 82 125 connect localhost 3000;
#X msg 28 171 disconnect;
#X obj 188 172 r >ff;
#X obj 28 18 inlet;
#X obj 28 70 sel;
#X obj 29 288 outlet;
#X obj 180 232 netreceive 3001;
#X obj 340 289 outlet;
#X obj 180 288 s ff>;
#X obj 234 19 r ff>;
#X obj 233 72 print ff>;
#X connect 0 0 6 0;
#X connect 1 0 0 0;
#X connect 2 0 0 0;
#X connect 3 0 0 0;
#X connect 4 0 5 0;
#X connect 5 0 2 0;
#X connect 5 1 1 0;
#X connect 7 0 9 0;
#X connect 7 1 8 0;
#X connect 10 0 11 0;
#X restore 25 71 pd netio;
#X floatatom 109 126 5 0 0 0 - - -;
#X obj 26 17 tgl 28 0 empty empty empty 17 7 0 10 -262144 -1 -1 1 1
;
#N canvas 160 230 762 387 push 0;
#X floatatom 15 12 5 0 0 0 - - -;
#X floatatom 97 12 5 0 0 0 - - -;
#X obj 17 158 s >ff;
#X msg 16 60 send float f1 \$1;
#X msg 33 109 send float f2 \$1;
#N canvas 0 0 450 300 (subpatch) 0;
#X array a1 100 float 0;
#X coords 0 1 99 -1 200 100 1;
#X restore 17 236 graph;
#N canvas 0 0 450 300 (subpatch) 0;
#X array a2 100 float 0;
#X coords 0 1 99 -1 200 100 1;
#X restore 241 234 graph;
#X obj 238 157 s >ff;
#X msg 236 59 symbol \$1 \, send array \$1 \, 100;
#X msg 237 13 symbol a1;
#X msg 387 15 symbol a2;
#X obj 237 108 list-table a1;
#X floatatom 474 105 5 0 0 0 - - -;
#X obj 475 294 s >ff;
#X msg 475 156 send event t1 100 \$1;
#X msg 600 15 send track t1;
#X msg 598 60 send track t2;
#X msg 489 204 send event t2 100 \$1;
#X floatatom 644 104 5 0 0 0 - - -;
#X msg 556 250 send clear t1;
#X msg 554 293 send clear t2;
#X msg 522 338 send clone t2 t1;
#X connect 0 0 3 0;
#X connect 1 0 4 0;
#X connect 3 0 2 0;
#X connect 4 0 2 0;
#X connect 8 0 11 0;
#X connect 9 0 8 0;
#X connect 10 0 8 0;
#X connect 11 0 7 0;
#X connect 12 0 14 0;
#X connect 14 0 13 0;
#X connect 15 0 13 0;
#X connect 16 0 13 0;
#X connect 17 0 13 0;
#X connect 18 0 17 0;
#X connect 19 0 13 0;
#X connect 20 0 13 0;
#X connect 21 0 13 0;
#X restore 216 21 pd push;
#N canvas 102 218 566 203 pull 0;
#X obj 20 162 s >ff;
#X msg 20 19 send tap-on F1;
#X msg 45 66 send tap-on F2;
#X msg 69 113 send tap-off F1;
#X msg 299 19 send get F1;
#X obj 298 157 s >ff;
#X msg 329 113 send recall t1;
#X msg 327 66 send get F2;
#X msg 379 157 send recall t2;
#X connect 1 0 0 0;
#X connect 2 0 0 0;
#X connect 3 0 0 0;
#X connect 4 0 5 0;
#X connect 6 0 5 0;
#X connect 7 0 5 0;
#X connect 8 0 5 0;
#X restore 216 71 pd pull;
#N canvas 588 459 613 359 qlist 0;
#X floatatom 237 63 5 0 0 0 - - -;
#X obj 17 320 s >ff;
#X obj 106 63 hsl 128 28 0 127 0 0 empty q1 empty -2 -8 0 10 -262144
-1 -1 0 0;
#X msg 55 271 send event q1 \$1 \$2;
#X msg 16 14 send track q1;
#X msg 199 14 send clear q1;
#X obj 103 171 timer;
#X obj 103 224 pack;
#X obj 16 63 t b a;
#X obj 433 63 s >ff;
#X msg 432 14 send recall q1;
#X obj 103 115 t b b 0;
#X obj 327 63 r ff>;
#X obj 326 115 route q1;
#X obj 434 318 qlist;
#X msg 433 270 clear;
#N canvas 245 119 210 441 add 0;
#X obj 21 126 until;
#X obj 22 181 list append;
#X obj 20 73 t b l;
#X obj 150 73 t b;
#X obj 22 235 list split 2;
#X obj 21 20 inlet;
#X obj 22 400 outlet;
#X obj 21 297 pack 0 0 s;
#X msg 21 350 add \$1 \$3 \$2;
#X obj 126 18 inlet;
#X connect 0 0 1 0;
#X connect 1 0 4 0;
#X connect 2 0 0 0;
#X connect 2 1 1 1;
#X connect 3 0 0 1;
#X connect 4 0 7 0;
#X connect 4 1 1 1;
#X connect 4 2 3 0;
#X connect 5 0 2 0;
#X connect 7 0 8 0;
#X connect 8 0 6 0;
#X connect 9 0 7 2;
#X restore 326 269 pd add;
#X msg 521 270 print;
#X obj 325 167 t l b b;
#X obj 362 219 symbol q1;
#X obj 524 217 bng 28 250 50 0 empty empty empty 17 7 0 10 -262144
-1 -1;
#X connect 2 0 0 0;
#X connect 2 0 11 0;
#X connect 3 0 1 0;
#X connect 4 0 8 0;
#X connect 5 0 8 0;
#X connect 6 0 7 0;
#X connect 7 0 3 0;
#X connect 8 0 6 0;
#X connect 8 1 1 0;
#X connect 10 0 9 0;
#X connect 11 0 6 0;
#X connect 11 1 6 1;
#X connect 11 2 7 1;
#X connect 12 0 13 0;
#X connect 13 0 18 0;
#X connect 15 0 14 0;
#X connect 16 0 14 0;
#X connect 17 0 14 0;
#X connect 18 0 16 0;
#X connect 18 1 19 0;
#X connect 18 2 15 0;
#X connect 19 0 16 1;
#X connect 20 0 14 0;
#X restore 216 124 pd qlist;
#X connect 1 0 0 0;
#X connect 1 1 2 0;
#X connect 3 0 1 0;
