#N canvas 203 148 794 478 24;
#X obj 20 194 netsend;
#X msg 21 25 connect localhost 3000;
#X floatatom 182 79 5 0 0 0 - - -;
#X floatatom 21 240 5 0 0 0 - - -;
#X msg 40 73 disconnect;
#N canvas 0 0 450 300 (subpatch) 0;
#X array t1 100 float 2;
#X coords 0 1 99 -1 200 140 1;
#X restore 21 309 graph;
#X obj 423 127 list-table t1;
#N canvas 0 0 450 300 (subpatch) 0;
#X array t2 100 float 2;
#X coords 0 1 99 -1 200 140 1;
#X restore 246 309 graph;
#X msg 423 73 symbol t2 \, send array t2 \, 100;
#X msg 377 25 symbol t1 \, send array t1 \, 100;
#X obj 520 365 netreceive 3001;
#X floatatom 681 414 5 0 0 0 - - -;
#X obj 520 418 print ff;
#X msg 521 208 send tap-on l1;
#X msg 183 127 send float v1 \$1;
#X msg 547 258 send tap-on l2;
#X obj 57 127 r >ff;
#X obj 521 309 s >ff;
#X msg 604 309 send tap-off l1;
#X obj 424 176 s >ff;
#X floatatom 264 79 5 0 0 0 - - -;
#X obj 184 226 s >ff;
#X msg 200 176 send float v2 \$1;
#X connect 0 0 3 0;
#X connect 1 0 0 0;
#X connect 2 0 14 0;
#X connect 4 0 0 0;
#X connect 6 0 19 0;
#X connect 8 0 6 0;
#X connect 9 0 6 0;
#X connect 10 0 12 0;
#X connect 10 1 11 0;
#X connect 13 0 17 0;
#X connect 14 0 21 0;
#X connect 15 0 17 0;
#X connect 16 0 0 0;
#X connect 18 0 17 0;
#X connect 20 0 22 0;
#X connect 22 0 21 0;
